<svg width="253" height="1202" viewBox="0 0 253 1202" fill="none" xmlns="http://www.w3.org/2000/svg">
<path fill-rule="evenodd" clip-rule="evenodd" d="M103.999 1200.43L116.204 1150.48C128.41 1100.53 152.82 1000.63 123.231 900.51C93.6421 800.388 10.0536 700.043 10.4643 600.044C10.8751 500.045 95.2851 400.391 107.696 300.441C120.106 200.491 60.5176 100.246 30.7232 50.1228L0.928866 1.43051e-05L252.927 1.03508L252.721 51.0347C252.516 101.034 252.105 201.033 251.695 301.033C251.284 401.032 250.873 501.031 250.462 601.03C250.052 701.029 249.641 801.028 249.23 901.028C248.819 1001.03 248.409 1101.03 248.203 1151.03L247.998 1201.02L103.999 1200.43Z" fill="white"/>
</svg>
